HIERARCHY
ROOT Hips
{
	OFFSET 0.00 0.00 0.00
	CHANNELS 6 Xposition Yposition Zposition Xrotation Yrotation Zrotation
	JOINT Spine
	{
		OFFSET 0.00000 7.17041 0.00000
		CHANNELS 3 Xrotation Yrotation Zrotation
		JOINT Head
		{
			OFFSET 0.00000 14.27615 0.00000
			CHANNELS 3 Xrotation Yrotation Zrotation
			End Site
			{
				OFFSET 0.00000 4.52755 0.00000
			}
		}
		JOINT LeftShoulder
		{
			OFFSET 0.00000 10.71824 0.00000
			CHANNELS 3 Xrotation Yrotation Zrotation
			JOINT LeftArm
			{
				OFFSET 7.05887 0.00000 0.00000
				CHANNELS 3 Xrotation Yrotation Zrotation
				JOINT LeftForeArm
				{
					OFFSET 10.95552 0.00000 0.00000
					CHANNELS 3 Yrotation Zrotation Xrotation
					JOINT LeftHand
					{
						OFFSET 8.19372 0.00000 0.00000
						CHANNELS 3 Xrotation Yrotation Zrotation
						JOINT LeftHandThumb1
						{
							OFFSET 0.00000 0.00000 0.00000
							CHANNELS 3 Xrotation Zrotation Yrotation
							End Site
							{
								OFFSET 0.00000 0.00000 3.93700
							}
						}
						End Site
						{
							OFFSET 3.93700 0.00000 0.00000
						}
					}
				}
			}
		}
		JOINT RightShoulder
		{
			OFFSET 0.00000 10.71824 0.00000
			CHANNELS 3 Xrotation Yrotation Zrotation
			JOINT RightArm
			{
				OFFSET -7.05887 0.00000 0.00000
				CHANNELS 3 Xrotation Yrotation Zrotation
				JOINT RightForeArm
				{
					OFFSET -10.95552 0.00000 0.00000
					CHANNELS 3 Yrotation Zrotation Xrotation
					JOINT RightHand
					{
						OFFSET -8.19372 0.00000 0.00000
						CHANNELS 3 Xrotation Yrotation Zrotation
						JOINT RightHandThumb1
						{
							OFFSET 0.00000 0.00000 0.00000
							CHANNELS 3 Xrotation Zrotation Yrotation
							End Site
							{
								OFFSET 0.00000 0.00000 3.93700
							}
						}
						End Site
						{
							OFFSET -3.93700 0.00000 0.00000
						}
					}
				}
			}
		}
	}
	JOINT LeftUpLeg
	{
		OFFSET 4.31835 0.00000 0.00000
		CHANNELS 3 Xrotation Yrotation Zrotation
		JOINT LeftLeg
		{
			OFFSET 0.00000 -17.32364 0.00000
			CHANNELS 3 Xrotation Yrotation Zrotation
			JOINT LeftFoot
			{
				OFFSET 0.00000 -16.27037 0.00000
				CHANNELS 3 Xrotation Yrotation Zrotation
				JOINT LeftToeBase
				{
					OFFSET 0.00000 -1.27412 4.75510
					CHANNELS 3 Xrotation Yrotation Zrotation
					End Site
					{
						OFFSET 0.00000 0.00000 2.95275
					}
				}
			}
		}
	}
	JOINT RightUpLeg
	{
		OFFSET -4.31835 0.00000 0.00000
		CHANNELS 3 Xrotation Yrotation Zrotation
		JOINT RightLeg
		{
			OFFSET 0.00000 -17.32364 0.00000
			CHANNELS 3 Xrotation Yrotation Zrotation
			JOINT RightFoot
			{
				OFFSET 0.00000 -16.27037 0.00000
				CHANNELS 3 Xrotation Yrotation Zrotation
				JOINT RightToeBase
				{
					OFFSET 0.00000 -1.27412 4.75510
					CHANNELS 3 Xrotation Yrotation Zrotation
					End Site
					{
						OFFSET 0.00000 0.00000 2.95275
					}
				}
			}
		}
	}
}
MOTION
Frames: 20
Frame Time: 0.008333
 -4.8969 34.9243 -13.9798 -12.8423 -27.7737 -12.3905 12.0559 5.6717 5.6635 17.5100 -6.3197 -2.3659 20.9996 19.5702 -9.5210 -27.6534 22.9728 -57.7197 -122.2005 -0.0000 -1.2974 0.4088 -1.3061 17.3825 33.1476 -0.0000 26.2537 6.1920 -3.4003 3.6551 6.1911 3.2044 69.3590 29.2861 0.0000 16.8513 0.4599 4.0906 -6.4206 32.8623 0.0000 -24.3270 17.2469 21.5819 -9.2345 -8.9936 -0.0000 -0.0000 -18.4350 33.0477 14.2800 19.8947 -0.0000 0.0000 -53.1230 -39.7189 -35.6843 90.0979 -0.0000 -0.0000 43.8341 -39.5786 2.2861 12.6581 0.0000 -0.0000
 -4.8826 34.9240 -13.9766 -12.8473 -27.6535 -12.4301 12.0628 5.7560 5.7403 17.5024 -6.1821 -2.3364 20.9709 19.5864 -9.5145 -27.6679 22.8845 -57.7808 -122.2166 -0.0000 -1.3983 0.4255 -1.3662 17.2987 33.1476 -0.0000 26.2537 6.1044 -3.3678 3.6842 6.2498 3.1291 69.3562 29.1112 0.0000 16.6675 0.4692 4.0554 -6.6048 32.8623 0.0000 -24.3270 17.2537 21.5125 -9.1956 -9.0158 0.0000 0.0000 -18.4353 33.0059 14.3200 19.9328 0.0000 -0.0000 -53.1624 -39.5299 -35.7802 90.2648 0.0000 0.0000 44.2803 -39.2998 2.5835 12.3450 -0.0000 0.0000
 -4.8691 34.9247 -13.9716 -12.8551 -27.5248 -12.4636 12.0754 5.8566 5.7846 17.4993 -6.1658 -2.2818 20.9770 19.6201 -9.5468 -27.7250 22.6907 -57.8059 -122.2478 -0.0000 -1.3109 0.4164 -1.3307 17.3776 33.1476 -0.0000 26.2537 6.0658 -3.3963 3.7566 6.2353 3.1610 69.2997 28.8717 0.0000 16.3682 0.4639 3.9489 -6.7051 32.8623 0.0000 -24.3270 17.2746 21.4419 -9.1604 -9.0437 -0.0000 0.0000 -18.4057 32.9615 14.2846 19.8817 0.0000 -0.0000 -53.2093 -39.3405 -35.8989 90.3705 -0.0000 0.0000 44.5816 -39.0352 2.6404 12.5906 0.0000 -0.0000
 -4.8548 34.9273 -13.9663 -12.8543 -27.3934 -12.4969 12.0673 5.9493 5.8644 17.5278 -6.0923 -2.2660 20.9859 19.5957 -9.6666 -27.8425 22.5164 -57.6311 -122.2738 -0.0000 -1.5432 0.4430 -1.4292 17.2230 33.1476 -0.0000 26.2537 6.0186 -3.3945 3.7805 6.1824 2.9136 69.3389 28.7200 0.0000 16.2319 0.4639 4.0105 -6.6040 32.8623 0.0000 -24.3270 17.2943 21.4272 -9.1209 -9.0589 -0.0000 -0.0000 -18.3470 32.8506 14.1831 19.8629 0.0000 -0.0000 -53.2815 -39.1549 -36.0416 90.4226 -0.0000 -0.0000 44.7814 -38.7915 2.6162 12.7388 -0.0000 0.0000
 -4.8431 34.9308 -13.9583 -12.8512 -27.2668 -12.5427 12.0286 6.0337 5.9436 17.6028 -6.0159 -2.2518 21.0182 19.6074 -9.7120 -27.8703 22.3167 -57.6243 -122.3037 -0.0000 -1.4777 0.4425 -1.4271 17.2272 33.1476 -0.0000 26.2537 6.0056 -3.3809 3.8440 6.1583 2.7648 69.3268 28.6023 0.0000 16.0324 0.4686 4.0127 -6.6665 32.8623 0.0000 -24.3270 17.3325 21.4982 -9.0768 -9.0941 -0.0000 -0.0000 -18.2725 32.7195 14.0414 19.7536 0.0000 -0.0000 -53.3446 -38.9767 -36.1787 90.4064 -0.0000 0.0000 44.9833 -38.5308 2.5783 12.8487 0.0000 0.0000
 -4.8265 34.9356 -13.9544 -12.8384 -27.1004 -12.5811 11.9997 6.1109 6.0294 17.6847 -5.9740 -2.2161 21.0620 19.5947 -9.7436 -27.9386 22.1656 -57.6564 -122.3076 -0.0000 -1.5562 0.3965 -1.2690 17.3532 33.1476 -0.0000 26.2537 6.0286 -3.4071 3.9030 6.0524 2.6184 69.3159 28.4420 0.0000 15.6967 0.4700 4.0301 -6.6576 32.8623 0.0000 -24.3270 17.3213 21.5386 -9.0155 -9.0608 -0.0000 0.0000 -18.2249 32.5267 13.8595 19.8007 0.0000 -0.0000 -53.4519 -38.8164 -36.3851 90.3097 -0.0000 -0.0000 45.2286 -38.3406 2.7939 12.7421 -0.0000 -0.0000
 -4.8089 34.9405 -13.9495 -12.8191 -26.9387 -12.6133 11.9700 6.1605 6.1364 17.7563 -5.9181 -2.2260 21.0702 19.6055 -9.7883 -27.9241 21.9873 -57.6981 -122.3238 -0.0000 -1.4573 0.4202 -1.3558 17.2200 33.1476 -0.0000 26.2537 5.9015 -3.3979 3.8891 6.1079 2.5297 69.3347 28.2721 0.0000 15.4194 0.4697 3.9197 -6.8389 32.8623 0.0000 -24.3270 17.3022 21.6124 -8.9625 -9.0101 -0.0000 -0.0000 -18.1643 32.3308 13.6411 19.7855 0.0000 0.0000 -53.5701 -38.6453 -36.5966 90.1501 0.0000 0.0000 45.3388 -38.2317 2.7668 12.8272 -0.0000 0.0000
 -4.7869 34.9455 -13.9469 -12.7671 -26.7811 -12.6344 11.9117 6.1915 6.2617 17.8383 -5.8182 -2.2709 21.1006 19.6022 -9.8963 -27.9538 21.7595 -57.6110 -122.3412 -0.0000 -1.4798 0.3808 -1.2132 17.4266 33.1476 -0.0000 26.2537 5.8814 -3.3711 3.8884 6.0515 2.2603 69.3779 28.2718 0.0000 15.2150 0.4524 3.7522 -6.8801 32.8623 0.0000 -24.3270 17.2442 21.7250 -8.9101 -8.9514 -0.0000 -0.0000 -18.0939 32.1179 13.4360 19.7684 -0.0000 0.0000 -53.7210 -38.4653 -36.8115 89.9061 -0.0000 0.0000 45.5171 -38.1188 2.6857 12.9006 -0.0000 -0.0000
 -4.7639 34.9496 -13.9428 -12.7335 -26.6162 -12.6592 11.8615 6.2317 6.3774 17.9407 -5.7403 -2.3079 21.1391 19.6036 -9.8841 -27.9734 21.7477 -57.7137 -122.2873 -0.0000 -1.7930 0.4716 -1.5426 17.0030 33.1476 -0.0000 26.2537 5.8531 -3.3489 3.8596 5.9926 2.0286 69.4223 28.2133 0.0000 14.9002 0.4387 3.7170 -6.7366 32.8623 0.0000 -24.3270 17.2185 21.7982 -8.8680 -8.9211 -0.0000 0.0000 -18.0248 31.9530 13.2050 19.7232 0.0000 0.0000 -53.8531 -38.2500 -37.0228 89.6296 0.0000 0.0000 45.5556 -38.0179 2.6813 13.0161 -0.0000 0.0000
 -4.7419 34.9542 -13.9407 -12.6780 -26.4418 -12.6966 11.7927 6.2991 6.5311 18.0156 -5.7435 -2.3746 21.1728 19.5592 -9.9503 -27.9869 21.5091 -57.7136 -122.3148 -0.0000 -1.5148 0.4359 -1.4074 17.2114 33.1476 -0.0000 26.2537 5.9225 -3.4113 3.8356 5.8093 1.8645 69.4601 28.1563 0.0000 14.7201 0.4454 3.6418 -6.9769 32.8623 0.0000 -24.3270 17.1778 21.8943 -8.8086 -8.9282 0.0000 0.0000 -17.9477 31.7763 13.0290 19.7501 0.0000 -0.0000 -53.9983 -38.0475 -37.2355 89.2740 0.0000 -0.0000 45.6087 -37.8537 2.5074 13.1482 -0.0000 -0.0000
 -4.7192 34.9587 -13.9401 -12.5945 -26.2312 -12.7127 11.7089 6.3112 6.6703 18.0872 -5.6766 -2.4146 21.1602 19.5772 -9.9437 -27.9461 21.4350 -57.7950 -122.2649 -0.0000 -1.8552 0.4715 -1.5465 16.9588 33.1476 -0.0000 26.2537 5.9225 -3.4318 3.8349 5.7721 1.7014 69.4715 28.2038 0.0000 14.4259 0.4602 3.6577 -7.1758 32.8623 0.0000 -24.3270 17.0580 21.8949 -8.7187 -8.8420 0.0000 0.0000 -17.9256 31.6448 12.8911 19.6819 0.0000 -0.0000 -54.1875 -37.8484 -37.5024 88.8512 0.0000 0.0000 45.5081 -37.6479 2.0487 13.2906 -0.0000 -0.0000
 -4.6961 34.9635 -13.9399 -12.5207 -26.0115 -12.7331 11.6475 6.2904 6.8079 18.1509 -5.6071 -2.4507 21.1407 19.6008 -9.9470 -27.8818 21.2940 -57.8706 -122.2457 -0.0000 -1.7037 0.4427 -1.4263 17.2467 33.1476 -0.0000 26.2537 5.8178 -3.4071 3.8208 5.7607 1.3021 69.5173 28.2959 0.0000 14.3524 0.4423 3.6055 -6.9987 32.8623 0.0000 -24.3270 16.9463 21.8813 -8.6250 -8.7515 0.0000 -0.0000 -17.8875 31.4973 12.6895 19.5806 -0.0000 0.0000 -54.3531 -37.6294 -37.7615 88.3600 0.0000 0.0000 45.4565 -37.4650 1.9926 13.2687 -0.0000 0.0000
 -4.6707 34.9680 -13.9392 -12.4771 -25.8809 -12.7621 11.5949 6.3374 6.9196 18.2203 -5.5272 -2.4698 21.0991 19.6090 -9.9671 -27.8384 21.2148 -57.8907 -122.2493 -0.0000 -1.8202 0.4878 -1.5888 17.0682 33.1476 -0.0000 26.2537 5.8096 -3.3706 3.8184 5.6871 1.0620 69.5233 28.3670 0.0000 14.1307 0.4283 3.6067 -6.7766 32.8623 0.0000 -24.3270 16.9038 22.0247 -8.5841 -8.7192 -0.0000 0.0000 -17.8756 31.3372 12.5067 19.7551 -0.0000 0.0000 -54.4795 -37.3384 -37.9265 87.8075 -0.0000 -0.0000 45.2991 -37.2890 1.6609 12.8342 0.0000 -0.0000
 -4.6403 34.9710 -13.9381 -12.4618 -25.7960 -12.7943 11.5996 6.4505 7.0438 18.1809 -5.4434 -2.5763 21.0998 19.6233 -10.0658 -27.8703 21.0979 -57.8533 -122.2243 -0.0000 -1.9056 0.4909 -1.5877 17.1822 33.1476 -0.0000 26.2537 5.7474 -3.3919 3.7668 5.7075 1.1333 69.4923 28.3749 0.0000 13.6601 0.4483 3.6181 -7.0683 32.8623 0.0000 -24.3270 16.8661 22.0801 -8.5637 -8.6620 -0.0000 -0.0000 -17.8096 31.2464 12.2538 19.6517 0.0000 -0.0000 -54.5313 -36.9333 -38.0122 87.1724 0.0000 -0.0000 45.3304 -36.8796 1.5060 13.0035 -0.0000 0.0000
 -4.6104 34.9750 -13.9385 -12.4485 -25.7090 -12.8355 11.6118 6.5444 7.1788 18.1231 -5.3656 -2.7128 21.0430 19.6491 -10.1253 -27.8338 21.0313 -57.8795 -122.2147 -0.0000 -2.0226 0.5218 -1.6872 17.1866 33.1476 -0.0000 26.2537 5.6808 -3.3725 3.7217 5.6354 0.8292 69.4988 28.4700 0.0000 13.5122 0.4435 3.5992 -7.0295 32.8623 0.0000 -24.3270 16.8260 22.1595 -8.5231 -8.6029 -0.0000 0.0000 -17.7398 31.0894 12.0724 19.6184 0.0000 0.0000 -54.5684 -36.5454 -38.0755 86.4430 -0.0000 -0.0000 45.1576 -36.4791 0.8068 13.5152 0.0000 0.0000
 -4.5810 34.9796 -13.9423 -12.4354 -25.6708 -12.8779 11.6207 6.6828 7.2815 18.0821 -5.2757 -2.7801 20.9742 19.6732 -10.1482 -27.8042 21.0271 -57.9420 -122.2009 -0.0000 -2.0615 0.4966 -1.6030 17.2167 33.1476 -0.0000 26.2537 5.6194 -3.3478 3.7162 5.5688 0.5602 69.4668 28.5469 0.0000 13.4115 0.4468 3.4544 -7.3740 32.8623 0.0000 -24.3270 16.7653 22.2579 -8.4861 -8.5216 -0.0000 -0.0000 -17.6837 30.9703 11.8890 19.5072 -0.0000 -0.0000 -54.5110 -36.0212 -38.0199 85.6012 -0.0000 0.0000 45.4253 -35.7505 0.3039 13.3314 -0.0000 0.0000
 -4.5490 34.9832 -13.9431 -12.4139 -25.5596 -12.9287 11.6434 6.7390 7.4433 18.0117 -5.1552 -2.9106 20.9393 19.6884 -10.2016 -27.7816 21.0815 -58.0228 -122.1944 -0.0000 -2.1469 0.5533 -1.8115 16.9891 33.1476 -0.0000 26.2537 5.5487 -3.3528 3.6467 5.5328 0.4292 69.4329 28.5766 0.0000 13.2190 0.4530 3.4672 -7.4487 32.8623 0.0000 -24.3270 16.6866 22.2381 -8.4217 -8.4475 -0.0000 -0.0000 -17.6853 30.9166 11.7570 19.5581 -0.0000 -0.0000 -54.5009 -35.5912 -38.0729 84.6814 0.0000 0.0000 45.5950 -35.3489 0.3694 13.1470 -0.0000 -0.0000
 -4.5213 34.9865 -13.9432 -12.3859 -25.4540 -12.9834 11.6551 6.8179 7.6099 17.9042 -5.0912 -3.0651 20.9078 19.6537 -10.2514 -27.7741 21.1788 -58.0490 -122.1895 -0.0000 -2.2175 0.5714 -1.8754 16.9484 33.1476 -0.0000 26.2537 5.4625 -3.3793 3.5682 5.5021 0.1866 69.4406 28.6310 0.0000 12.9702 0.4584 3.4797 -7.5091 32.8623 0.0000 -24.3270 16.6209 22.2492 -8.3579 -8.4044 -0.0000 0.0000 -17.6928 30.8650 11.6063 19.4696 0.0000 -0.0000 -54.4669 -35.1780 -38.0948 83.6470 0.0000 0.0000 45.8637 -35.1888 0.5328 12.7387 0.0000 -0.0000
 -4.4906 34.9902 -13.9435 -12.3873 -25.3476 -13.0605 11.6864 6.8788 7.7764 17.8557 -4.9862 -3.1714 20.8475 19.6466 -10.2766 -27.7115 21.2655 -58.1405 -122.2074 -0.0000 -2.1589 0.5654 -1.8683 16.8404 33.1476 -0.0000 26.2537 5.4117 -3.3423 3.5020 5.4259 -0.1494 69.4155 28.6858 0.0000 12.8442 0.4536 3.4502 -7.4939 32.8623 0.0000 -24.3270 16.5867 22.2652 -8.2947 -8.3800 -0.0000 -0.0000 -17.6399 30.8023 11.4906 19.3840 -0.0000 0.0000 -54.3851 -34.7574 -38.0966 82.4960 0.0000 0.0000 46.1554 -35.1731 0.7735 12.6472 -0.0000 -0.0000
 -4.4620 34.9941 -13.9423 -12.3908 -25.2097 -13.1658 11.7160 6.9138 7.9669 17.8240 -4.8535 -3.2375 20.7688 19.6141 -10.2823 -27.6637 21.4713 -58.2115 -122.2389 -0.0000 -2.4131 0.6077 -2.0329 16.6469 33.1476 -0.0000 26.2537 5.3695 -3.3306 3.4537 5.3710 -0.3721 69.3492 28.7354 0.0000 12.6569 0.4304 3.3053 -7.4224 32.8623 0.0000 -24.3270 16.5773 22.2711 -8.2081 -8.4128 0.0000 -0.0000 -17.6254 30.7498 11.4511 19.4619 0.0000 -0.0000 -54.2396 -34.3626 -38.0717 81.2623 0.0000 0.0000 46.3179 -35.2311 0.8021 13.0886 -0.0000 -0.0000
